<?xml version="1.0" standalone="no"?>
<!DOCTYPE svg PUBLIC "-//W3C//DTD SVG 20010904//EN"
 "http://www.w3.org/TR/2001/REC-SVG-20010904/DTD/svg10.dtd">
<svg version="1.0" xmlns="http://www.w3.org/2000/svg"
 width="512.000000pt" height="512.000000pt" viewBox="0 0 512.000000 512.000000"
 preserveAspectRatio="xMidYMid meet">

<g transform="translate(0.000000,512.000000) scale(0.100000,-0.100000)"
fill="#000000" stroke="none">
<path d="M2465 4033 c-41 -21 -74 -52 -93 -88 -15 -27 -18 -94 -22 -600 l-5
-570 -570 -5 c-506 -4 -573 -7 -600 -22 -69 -38 -105 -102 -105 -188 0 -86 36
-150 105 -188 27 -15 94 -18 600 -22 l570 -5 5 -570 c4 -506 7 -573 22 -600
38 -69 102 -105 188 -105 86 0 150 36 188 105 15 27 18 94 22 600 l5 570 570
5 c506 4 573 7 600 22 69 38 105 102 105 188 0 85 -44 163 -110 194 -17 8
-197 13 -595 16 l-570 5 -5 570 c-4 457 -8 575 -19 595 -22 41 -64 81 -100 96
-45 19 -148 17 -186 -3z"/>
</g>
</svg>
