<?xml version="1.0" standalone="no"?>
<!DOCTYPE svg PUBLIC "-//W3C//DTD SVG 20010904//EN"
 "http://www.w3.org/TR/2001/REC-SVG-20010904/DTD/svg10.dtd">
<svg version="1.0" xmlns="http://www.w3.org/2000/svg"
 width="985.000000pt" height="917.000000pt" viewBox="0 0 985.000000 917.000000"
 preserveAspectRatio="xMidYMid meet">

<g transform="translate(0.000000,917.000000) scale(0.100000,-0.100000)"
fill="#000000" stroke="none">
<path d="M3263 7390 c-314 -31 -625 -109 -909 -230 -193 -82 -235 -108 -262
-160 l-22 -45 2 -2012 3 -2012 21 -28 c32 -44 82 -73 125 -73 22 0 91 22 171
54 308 125 589 190 933 217 470 36 1039 -63 1503 -262 l112 -48 113 48 c290
125 627 212 972 252 159 19 530 16 690 -5 277 -36 523 -100 773 -202 80 -32
149 -54 171 -54 43 0 93 29 125 73 l21 28 3 2012 2 2012 -22 45 c-27 52 -69
78 -262 160 -239 102 -485 170 -756 211 -129 19 -196 23 -405 24 -254 0 -360
-8 -575 -46 -246 -43 -537 -129 -749 -223 l-101 -44 -101 44 c-266 117 -595
207 -920 250 -137 18 -527 26 -656 14z m572 -241 c289 -30 642 -121 900 -232
l80 -34 3 -1893 c2 -1512 0 -1891 -10 -1887 -316 118 -688 202 -1013 228 -182
14 -532 7 -694 -16 -227 -31 -458 -88 -656 -160 -55 -20 -108 -39 -117 -42
-17 -5 -18 89 -18 1884 l0 1889 133 56 c300 127 618 202 942 222 87 5 334 -3
450 -15z m2859 -5 c251 -31 498 -98 744 -202 l132 -56 0 -1889 c0 -1795 -1
-1889 -17 -1884 -10 3 -70 24 -133 47 -495 179 -1070 226 -1630 134 -185 -30
-410 -87 -575 -144 -66 -23 -128 -44 -137 -47 -17 -5 -18 89 -18 1885 l0 1891
56 25 c220 101 577 200 845 236 237 31 498 33 733 4z"/>
<path d="M3310 6793 c-320 -23 -820 -158 -859 -231 -17 -32 -13 -80 9 -102 36
-36 62 -34 172 8 540 211 1192 212 1778 2 69 -24 124 -39 138 -35 39 9 62 41
62 84 0 51 -23 69 -138 111 -355 129 -790 190 -1162 163z"/>
<path d="M3307 6050 c-219 -17 -459 -66 -652 -134 -197 -68 -215 -81 -215
-146 0 -38 39 -80 73 -80 13 0 73 18 131 40 235 88 454 134 715 150 358 21
757 -39 1085 -164 85 -32 110 -33 141 -1 27 26 33 72 14 106 -22 42 -305 136
-556 184 -215 41 -533 61 -736 45z"/>
<path d="M3190 5295 c-273 -33 -659 -143 -727 -206 -31 -30 -32 -87 0 -117 31
-30 72 -28 159 7 156 62 327 108 506 137 152 24 498 30 667 10 226 -26 478
-85 644 -151 82 -32 121 -32 149 -2 30 32 29 87 0 115 -73 68 -506 182 -807
212 -138 13 -461 11 -591 -5z"/>
<path d="M3300 4563 c-243 -23 -412 -57 -610 -123 -80 -26 -162 -55 -182 -64
-74 -32 -92 -104 -37 -150 17 -14 37 -26 45 -26 7 0 46 13 86 29 301 119 558
166 908 166 344 -1 644 -53 925 -161 54 -21 99 -33 112 -29 61 15 85 101 41
142 -52 47 -367 142 -605 182 -208 36 -513 51 -683 34z"/>
<path d="M3281 3819 c-255 -22 -493 -78 -728 -169 -90 -34 -113 -56 -113 -108
0 -40 38 -82 74 -82 14 0 58 13 98 29 494 194 1030 220 1583 77 72 -19 173
-50 226 -70 114 -43 132 -44 164 -11 29 28 33 79 10 112 -26 37 -270 120 -494
167 -248 53 -591 76 -820 55z"/>
<path d="M6125 6789 c-237 -22 -504 -81 -717 -159 -115 -42 -138 -60 -138
-111 0 -43 23 -75 62 -84 14 -4 69 11 138 35 586 210 1238 209 1778 -2 110
-42 136 -44 172 -8 22 22 26 70 9 102 -29 54 -388 168 -664 209 -153 23 -488
33 -640 18z"/>
<path d="M6235 6054 c-209 -15 -394 -43 -556 -84 -185 -46 -375 -115 -394
-143 -23 -33 -19 -84 10 -112 31 -32 56 -31 141 1 328 125 727 185 1085 164
261 -16 480 -62 715 -150 58 -22 118 -40 131 -40 61 0 97 96 53 140 -60 60
-440 171 -700 204 -118 15 -395 27 -485 20z"/>
<path d="M6080 5299 c-283 -30 -717 -145 -786 -210 -51 -48 -17 -139 52 -139
17 0 59 11 95 25 166 66 418 125 644 151 168 20 515 14 665 -10 177 -29 355
-77 508 -137 89 -36 131 -37 160 -6 30 32 29 87 -1 116 -44 41 -316 132 -509
171 -235 47 -586 64 -828 39z"/>
<path d="M6110 4559 c-311 -31 -757 -148 -817 -215 -43 -47 -20 -124 40 -139
13 -4 58 8 112 29 281 108 581 160 925 161 350 0 607 -47 908 -166 40 -16 79
-29 86 -29 8 0 28 12 45 26 39 32 42 81 9 118 -51 55 -407 162 -673 202 -122
18 -505 26 -635 13z"/>
<path d="M6215 3823 c-148 -11 -277 -28 -389 -49 -235 -46 -513 -136 -541
-177 -23 -33 -19 -84 10 -112 32 -33 50 -32 160 10 51 19 153 50 226 69 552
145 1091 120 1587 -75 89 -35 116 -36 147 -4 29 28 33 79 10 112 -33 47 -365
154 -597 192 -203 34 -448 48 -613 34z"/>
<path d="M1840 6971 c-69 -21 -140 -82 -176 -151 -18 -34 -19 -109 -22 -2115
-2 -1927 -1 -2083 14 -2124 21 -55 84 -125 139 -154 l40 -22 3105 0 3105 0 40
22 c55 29 118 99 139 154 15 41 16 197 14 2124 l-3 2080 -22 41 c-43 80 -155
154 -235 154 -17 0 -18 -80 -20 -2142 l-3 -2143 -3015 0 -3015 0 -3 2143 -2
2142 -28 -1 c-15 0 -38 -4 -52 -8z"/>
</g>
</svg>
